<svg width="468" height="469" viewBox="0 0 468 469" fill="none" xmlns="http://www.w3.org/2000/svg">
<rect x="-0.000518799" y="0.998291" width="467.71" height="467.71" rx="55" fill="#FF8934"/>
<path d="M398.004 -3.93262H454.333C454.333 -3.93262 454.333 -3.93262 454.333 -3.93262V-3.93262C454.333 -3.93262 456.32 -0.684442 457.039 1.23275L458.865 6.1031C461.133 11.8468 463.241 17.6965 465.191 23.6519C466.856 28.7391 467.52 34.1397 469.076 39.2613C469.833 41.7495 470.693 44.1982 471.167 46.5697C472.138 51.4257 472.786 53.3681 473.757 56.9291C475.976 66.9186 480.904 76.1035 488.001 83.4752L493.829 89.6261L503.217 99.3381C512.295 110.811 517.508 124.863 518.108 139.481V143.042C518.108 151.459 519.727 160.2 521.346 168.941C525.099 188.943 527.586 209.163 528.792 229.479C528.981 236.442 530.293 243.329 532.676 249.874C534.019 253.955 536.394 257.619 539.571 260.512C541.211 262.006 543.036 263.268 544.994 264.27C548.661 266.148 552.885 266.384 557.005 266.384H557.28C564.36 266.199 571.183 263.697 576.704 259.262C585.997 251.757 592.775 241.591 596.128 230.126C599.127 219.596 600.653 208.702 600.66 197.753C600.516 189.723 601.167 181.698 602.603 173.797C605.042 156.994 613.567 141.672 626.559 130.74C631.415 126.855 636.918 122.971 642.098 119.41L645.659 117.143C653.219 111.099 658.843 102.972 661.835 93.7663C664.228 86.401 664.853 78.6038 663.695 70.9999C663.117 67.204 661.707 63.4676 658.932 60.8139V60.8139C656.799 58.4203 654.214 56.4728 651.325 55.0837C648.435 53.6946 645.299 52.8914 642.098 52.7206C637.786 52.4325 633.46 52.4325 629.149 52.7206H615.228C610.631 52.6683 606.06 52.0153 601.631 50.7782C583.434 45.495 567.425 34.4823 555.985 19.3761C551.477 13.6876 547.88 7.3365 545.319 0.549654C545.114 0.00733735 544.978 0.0236707 544.978 -0.555978V-0.555978C544.978 -1.26516 545.553 -2.63769 546.262 -2.63769H567.791C570.213 -2.63769 572.849 -1.95658 573.791 0.275908V0.275908C577.13 7.40157 581.864 13.786 587.711 19.0524C598.331 28.0765 611.993 32.708 625.911 32.0017H630.369C633.005 32.0017 635.638 31.8122 638.247 31.4345L653.369 29.2458C657.068 28.7104 660.811 28.5906 664.548 28.6651C666.046 28.6949 667.544 28.7009 669.042 28.6828C673.511 28.629 678.317 28.123 681.532 25.0184V25.0184C683.162 23.4449 684.402 21.513 685.155 19.3761C686.89 13.895 688.083 8.25653 688.716 2.54204L-nan -nanL-nan -nanL688.716 2.54204C688.716 2.54204 688.716 1.5943 688.716 0.599706C688.716 -0.47305 689.585 -1.34276 690.658 -1.34276H710.775C712.636 -1.34276 714.599 -0.820489 715.525 0.794146V0.794146C715.811 1.29324 716.07 1.81227 716.408 2.27802C719.618 6.70467 723.9 10.2502 728.858 12.5777C733.393 14.4838 738.042 16.1056 742.779 17.4337L-nan -nanL-nan -nanL742.779 17.4337H746.819C747.146 17.4337 747.472 17.4731 747.789 17.5528C753.694 19.0373 759.485 20.9449 765.117 23.2609C772.178 26.1323 778.095 31.2529 781.951 37.8289C787.686 48.1738 789.848 60.122 788.102 71.8208C787.368 79.944 784.653 87.7632 780.194 94.5926C775.735 101.422 769.669 107.053 762.527 110.992C752.974 116.304 742.997 120.808 732.699 124.459C730.591 125.207 728.365 125.56 726.128 125.56V125.56C724.501 125.56 722.877 125.744 721.303 126.159C715.582 127.667 709.989 129.632 704.578 132.035C699.232 134.176 694.553 137.705 691.024 142.258C687.496 146.81 685.246 152.222 684.507 157.934C683.875 163.852 683.875 169.821 684.507 175.739V178.976C684.618 185.103 685.488 191.193 687.097 197.105C692.034 215.298 703.577 230.996 719.47 241.133C728.715 247.048 738.34 252.348 748.282 256.996L755.405 260.557C764.988 265.222 774.189 270.634 782.922 276.744C783.474 277.055 784.016 277.382 784.548 277.724C792.14 282.609 794.252 292.227 794.252 301.255V347.109C794.252 347.76 793.724 348.289 793.073 348.289V348.289C792.79 348.289 792.515 348.186 792.301 348.001C785.33 341.966 779.604 336.558 774.505 331.778C764.094 321.065 754.364 309.713 745.369 297.786C738.089 288.123 730.08 279.032 721.413 270.593L715.585 265.413C709.111 259.262 701.989 252.787 695.514 245.665C688.697 238.049 682.927 229.557 678.356 220.414C671.836 207.563 667.254 193.817 664.759 179.624L-nan -nanL-nan -nanL664.759 179.624C663.926 172.24 662.298 164.968 659.903 157.934C659.089 155.486 657.525 153.356 655.434 151.846C653.342 150.335 650.829 149.52 648.249 149.517V149.517C646.096 149.517 643.924 149.657 641.889 150.359C640.147 150.96 638.479 151.762 636.918 152.754C629.506 157.736 624.111 165.196 621.703 173.797C618.914 182.823 617.389 192.193 617.171 201.638V205.846C615.711 223.199 610.403 240.009 601.631 255.054C595.836 265.393 587.614 274.17 577.675 280.628C569.105 285.86 559.227 288.554 549.187 288.398C544.526 288.527 539.864 288.201 535.266 287.427C530.773 286.966 526.531 285.135 523.114 282.182C519.697 279.228 517.272 275.295 516.166 270.916C514.822 265.62 514.062 260.192 513.9 254.73C513.9 249.874 513.9 245.018 513.9 240.162C513.9 235.306 513.9 229.479 513.9 223.651C513.114 212.602 510.826 201.711 507.102 191.278C502.524 178.843 497.116 166.73 490.915 155.02C485.83 142.369 476.424 131.93 464.369 125.56C460.232 123.053 455.586 121.504 450.772 121.028C445.269 121.028 440.736 124.266 435.557 132.035C428.345 143.378 420.34 154.196 411.6 164.408C402.53 174.351 392.678 183.553 382.141 191.926C375.053 197.247 368.867 203.642 363.798 210.861C359.992 216.28 356.759 222.359 354.3 228.507V228.507C353.005 231.745 350.415 236.601 348.149 240.486C341.546 253.957 329.922 264.302 315.776 269.298L303.15 273.183L285.668 279.01C277.259 281.82 269.627 286.565 263.386 292.862C257.145 299.159 252.469 306.834 249.734 315.268C246.038 324.96 244.922 335.446 246.497 345.699C248.113 354.441 252.024 362.597 257.827 369.331C269.781 383.001 280.607 397.617 290.201 413.035C292.754 417.661 295.793 422.002 299.265 425.984C301.56 429.192 304.566 431.826 308.048 433.679C311.53 435.532 315.394 436.555 319.337 436.668L-nan -nanL-nan -nanL319.337 436.668C331.725 435.847 343.321 430.282 351.71 421.128C359.246 413.22 365.28 404.005 369.515 393.935L-nan -nanL-nan -nanL369.515 393.935C376.079 380.521 385.081 368.446 396.061 358.324L428.435 330.16L445.916 314.62C455.743 304.817 468.946 299.142 482.822 298.757H485.735C489.545 298.678 493.324 299.45 496.797 301.019C500.269 302.587 503.348 304.911 505.807 307.822C509.31 311.763 512.152 316.246 514.224 321.095L518.108 329.188C522.447 338.625 527.311 347.812 532.676 356.706C537.724 365.033 544.584 372.115 552.748 377.424C558.485 381.026 565.077 383.037 571.848 383.252C576.079 383.201 580.258 382.321 584.15 380.662C587.974 379.156 591.658 377.314 595.157 375.158L601.631 370.95C607.135 367.712 612.638 364.151 618.142 361.562C626.039 357.421 634.801 355.203 643.717 355.087C647.37 354.612 651.07 354.612 654.724 355.087C662.853 356.359 670.368 360.18 676.186 365.998C682.004 371.816 685.825 379.331 687.097 387.46C688.251 395.078 688.251 402.827 687.097 410.445C686.522 417.266 683.799 423.73 679.32 428.907C674.842 434.083 668.837 437.707 662.17 439.257C654.584 440.653 646.896 441.411 639.184 441.524H613.286C606.811 442.244 600.567 444.352 594.981 447.704C589.394 451.056 584.596 455.573 580.913 460.948C578.941 463.746 577.22 466.709 575.768 469.802C574.324 472.878 574.28 476.694 572.059 479.266V479.266C570.927 480.577 569.356 481.43 567.64 481.666H536.747C535.87 481.666 535.029 481.057 535.226 480.202V480.202C535.25 480.099 535.273 479.995 535.285 479.89C535.422 478.651 535.416 477.401 535.266 476.163C535.266 476.163 535.266 473.573 535.266 471.954C535.401 461.117 536.266 450.302 537.856 439.581C539.13 432.432 537.749 425.064 533.971 418.862C530.709 412.694 527.757 406.368 525.127 399.907C523.866 396.81 522.416 393.791 520.683 390.932L519.419 388.846C517.686 385.986 516.226 382.97 515.006 379.855C511.94 372.031 508.613 364.206 504.835 356.382C501.265 348.989 496.69 342.126 491.239 335.987C488.746 333.009 485.624 330.623 482.097 328.999C478.57 327.376 474.726 326.556 470.844 326.598L-nan -nanL-nan -nanL470.844 326.598C463.767 327.036 456.942 329.385 451.096 333.397C442.031 339.224 433.614 346.022 425.197 352.497L419.694 356.706C411.476 362.974 403.984 370.141 397.356 378.072C390.245 388.014 384.577 398.914 380.522 410.445C373.535 427.604 363.561 443.387 351.062 457.063C345.072 463.173 340.702 470.678 338.344 478.895C338.189 479.432 338.255 480.004 338.327 480.558V480.558C338.467 481.628 337.403 482.314 336.323 482.314H297.999C297.089 482.314 296.352 481.576 296.352 480.667V480.667C296.352 480.471 296.317 480.277 296.248 480.095C293.539 472.93 289.028 466.606 283.172 461.722C281.443 460.28 279.743 458.793 278.269 457.091V457.091C276.947 455.566 275.462 454.191 273.863 452.96C267.741 448.248 261.85 443.243 256.209 437.962C246.668 427.931 238.003 417.1 230.31 405.589C223.752 395.348 215.42 386.359 205.706 379.043C200.872 375.529 196.423 371.514 192.433 367.065C184.664 358.648 177.542 349.907 170.42 341.166L163.621 332.749C157.023 325.981 151.362 318.36 146.787 310.088C139.684 292.622 136.162 273.907 136.428 255.054C136.181 242.386 137.707 229.746 140.96 217.501C143.255 208.607 144.558 199.487 144.845 190.307C144.442 175.394 140.325 160.818 132.867 147.898C129.527 142.309 124.78 137.694 119.099 134.513C113.419 131.332 107.003 129.696 100.493 129.769H97.256C87.3569 130.183 77.7003 132.958 69.0913 137.862C60.9728 142.208 53.2777 147.302 46.1062 153.078C29.8893 165.747 10.7757 174.179 -9.50995 177.616C-9.76905 177.66 -10.0316 177.681 -10.2944 177.681V177.681C-12.937 177.681 -15.0792 175.539 -15.0792 172.897V155.473C-15.0792 149.859 -10.5281 145.308 -4.914 145.308V145.308C-4.1396 145.308 -3.36719 145.222 -2.61497 145.038C2.87071 143.696 8.23107 141.892 13.409 139.647C16.0201 138.514 18.6677 137.464 21.3638 136.552C27.9595 134.323 34.389 131.623 40.6028 128.474L47.0774 125.56C62.5524 118.144 79.4503 114.168 96.6085 113.906C101.135 113.588 105.679 113.588 110.205 113.906C117.036 114.772 123.552 117.287 129.193 121.236C134.833 125.184 139.427 130.446 142.579 136.567C149.675 149.487 154.597 163.487 157.147 178.005C158.471 185.934 158.682 194.002 157.779 201.975C157.438 204.993 157.238 208.036 156.774 211.037C156.077 215.549 154.558 219.924 153.585 224.299C153.56 224.412 153.536 224.521 153.513 224.629C152.633 228.708 153.055 232.817 152.335 236.928C150.428 247.819 150.083 258.937 151.319 269.945C152.4 281.888 156.349 293.394 162.831 303.483C169.313 313.572 178.135 321.946 188.549 327.893C193.084 330.867 198.345 332.546 203.764 332.749C207.597 332.604 211.33 331.488 214.614 329.507C217.898 327.525 220.625 324.742 222.541 321.419C226.515 316.194 230.086 310.675 233.224 304.908L237.109 298.757C245.849 284.72 258.433 273.485 273.367 266.384L292.143 258.291L303.474 255.054C311.618 251.892 318.75 246.578 324.11 239.679C329.47 232.78 332.855 224.555 333.905 215.882C335.249 206.992 335.791 197.999 335.523 189.012C335.031 185.685 335.031 182.304 335.523 178.976C335.969 176.131 337.306 173.501 339.342 171.465C340.362 170.445 341.53 169.601 342.8 168.956C345.339 167.666 348.284 167.646 351.132 167.646H358.832C364.155 167.572 369.4 166.348 374.206 164.057C379.011 161.766 383.264 158.462 386.673 154.373C390.368 149.905 393.107 144.727 394.722 139.159C396.336 133.591 396.792 127.751 396.061 121.999C393.416 108.072 389.179 94.4939 383.436 81.5328L380.522 74.7344C378.032 67.448 375.982 60.02 374.383 52.4907C373.686 49.2065 372.668 45.9905 371.968 42.7069C371.249 39.3377 371.071 35.8646 371.45 32.4188C372.013 27.2947 373.791 22.3792 376.637 18.0812C379.7 13.5728 383.286 9.44338 387.32 5.77936V5.77936C389.47 3.845 391.254 1.53278 393.318 -0.492948C394.702 -1.85219 396.279 -3.01216 398.004 -3.93262M408.958 -3.93262C401.76 -3.93262 394.381 -2.52875 388.999 2.25008V2.25008C387.167 3.87647 385.347 5.52589 383.47 7.09991C379.777 10.196 376.403 13.6576 373.4 17.4337C370.302 22.1741 368.391 27.5904 367.828 33.225C367.264 38.8596 368.065 44.5471 370.163 49.807C373.4 60.1665 377.932 70.2022 382.141 80.2379C388.274 92.6027 392.945 105.64 396.061 119.086C397.086 124.495 396.939 130.06 395.632 135.407C394.324 140.755 391.885 145.76 388.48 150.085C385.075 154.411 380.782 157.956 375.891 160.483C371.001 163.009 365.625 164.458 360.127 164.732H352.278C349.314 164.732 346.256 164.773 343.601 166.09C342.163 166.804 340.84 167.75 339.691 168.9C337.483 171.107 336.026 173.953 335.523 177.034C335.027 180.469 335.027 183.958 335.523 187.393C336.328 196.224 336.328 205.109 335.523 213.939C334.535 222.424 331.235 230.475 325.983 237.212C320.73 243.948 313.728 249.113 305.74 252.14C295.704 256.672 285.345 260.233 275.633 265.089C260.461 272.087 247.642 283.331 238.727 297.463C234.402 305.17 229.646 312.627 224.483 319.8C222.685 322.988 220.109 325.669 216.996 327.594C213.883 329.518 210.333 330.624 206.678 330.807C201.516 330.558 196.502 328.998 192.11 326.275C181.522 320.785 172.409 312.832 165.536 303.086C158.663 293.339 154.231 282.085 152.614 270.269C151.084 257.287 151.851 244.137 154.88 231.421C156.823 223.328 158.765 215.234 160.06 207.141C161.522 197.593 161.522 187.877 160.06 178.329C157.415 163.63 152.5 149.432 145.492 136.244C142.251 130.131 137.644 124.848 132.03 120.806C127.647 117.65 122.742 115.317 117.555 113.905C114.638 113.111 111.6 112.935 108.577 112.935H99.1984C80.8504 112.846 62.7508 117.177 46.43 125.56C36.6435 130.672 26.4682 135.002 15.9991 138.51C9.43052 140.242 2.70788 141.327 -4.07233 141.747H-11.6501C-11.9913 141.747 -12.3301 141.677 -12.664 141.607V141.607C-13.9104 141.346 -14.7555 142.598 -14.7555 143.872V175.155C-14.7555 176.277 -14.0027 177.372 -12.903 177.146V177.146C-12.6262 177.089 -12.3452 177.034 -12.0626 177.034H-10.3755C-9.62794 177.034 -8.88127 176.971 -8.14602 176.836C12.0646 173.119 31.1063 164.645 47.4012 152.107C54.5106 146.558 61.9721 141.475 69.7387 136.891C78.315 132.236 87.8325 129.58 97.5797 129.122H99.8459C106.322 128.812 112.76 130.277 118.465 133.358C124.17 136.438 128.926 141.018 132.219 146.603C140 159.829 143.925 174.967 143.55 190.307C143.556 200.148 142.249 209.947 139.665 219.443C136.435 231.03 134.908 243.026 135.133 255.054C135.124 274.221 139.093 293.181 146.787 310.736C150.864 319.011 155.977 326.735 162.003 333.721C171.391 345.375 180.455 357.353 191.138 368.36C195.251 372.784 199.688 376.896 204.412 380.662C213.948 387.819 222.164 396.583 228.691 406.56C236.331 418.199 245.116 429.044 254.914 438.934C262.319 445.833 270.101 452.318 278.223 458.358C285 463.227 290.199 469.971 293.185 477.752C293.357 478.201 293.551 478.644 293.809 479.05V479.05C294.999 480.919 297.254 481.666 299.47 481.666H331.555C334.33 481.666 337.424 480.793 338.113 478.105V478.105C340.431 469.834 344.77 462.269 350.739 456.092C363.331 442.182 373.409 426.189 380.522 408.827C384.274 397.228 389.847 386.3 397.032 376.453C403.577 368.445 411.079 361.27 419.37 355.087C429.406 346.994 439.765 338.9 451.743 331.778C457.401 327.919 464.006 325.68 470.844 325.304C474.537 325.361 478.177 326.198 481.524 327.76C484.871 329.323 487.851 331.574 490.267 334.368C495.637 340.452 500.206 347.197 503.864 354.439C510.015 366.741 514.547 380.014 519.403 392.64C522.604 400.832 526.28 408.831 530.41 416.596C533.982 422.518 535.249 429.547 533.971 436.344C532.335 447.059 531.469 457.878 531.381 468.717C531.381 471.631 531.381 474.221 531.381 476.81V476.81C531.381 479.269 534.299 479.724 536.758 479.724H562.969C566.015 479.724 569.409 478.986 570.553 476.163V476.163C572.406 471.376 574.796 466.815 577.675 462.566C581.377 457.266 586.192 452.84 591.784 449.596C597.377 446.353 603.61 444.371 610.049 443.79C614.905 443.79 620.084 443.79 625.264 443.79C636.118 443.725 646.947 442.75 657.637 440.876C664.634 439.461 670.966 435.774 675.65 430.388C680.334 425.001 683.106 418.218 683.536 411.093C684.508 403.353 684.508 395.523 683.536 387.784C682.517 379.321 678.83 371.402 673.009 365.174C667.189 358.947 659.537 354.733 651.163 353.145C647.4 352.687 643.595 352.687 639.832 353.145C630.705 353.219 621.723 355.437 613.61 359.619C605.84 363.504 598.394 368.684 590.625 373.216C587.124 375.37 583.441 377.212 579.618 378.719C575.996 380.502 571.999 381.39 567.963 381.309C561.406 381.027 555.04 379.017 549.511 375.482C541.56 370.397 534.908 363.524 530.087 355.411C523.172 343.952 517.008 332.057 511.634 319.8C509.338 314.899 506.398 310.327 502.893 306.203C500.351 303.201 497.173 300.801 493.59 299.178C490.007 297.554 486.108 296.747 482.174 296.815H478.937C464.699 297.138 451.134 302.935 441.06 313.002L392.5 356.706C381.516 366.948 372.516 379.13 365.954 392.64C361.569 402.803 355.433 412.117 347.825 420.157C339.961 428.882 329.092 434.316 317.394 435.373L-nan -nanL-nan -nanL317.394 435.373C313.635 435.2 309.964 434.178 306.656 432.384C303.348 430.589 300.489 428.07 298.294 425.013C294.911 421.15 291.978 416.914 289.553 412.388C279.892 397.016 269.069 382.405 257.18 368.684C251.544 362.005 247.75 353.97 246.173 345.375C244.653 335.334 245.769 325.071 249.41 315.592C252.477 307.22 257.477 299.69 264.002 293.615C270.527 287.54 278.394 283.09 286.963 280.628C296.999 276.744 307.035 274.154 317.07 270.916C331.244 265.618 342.836 255.069 349.444 241.457C353.329 234.658 356.242 227.213 359.803 220.09C365.484 209.516 373.446 200.338 383.112 193.221C393.705 184.794 403.56 175.48 412.572 165.38C421.39 155.152 429.502 144.336 436.852 133.006C441.708 125.56 445.916 122.647 450.772 122.647C455.489 123.104 460.034 124.655 464.045 127.179C474.885 133.156 483.512 142.464 488.649 153.725C494.891 165.483 500.195 177.714 504.512 190.307C508.236 200.74 510.524 211.631 511.31 222.68C511.31 233.04 511.31 243.075 511.31 255.054C511.513 260.64 512.383 266.183 513.9 271.564C515.334 276.123 518.172 280.113 522.01 282.962C525.847 285.811 530.487 287.374 535.266 287.427C539.901 287.746 544.552 287.746 549.187 287.427C559.424 287.533 569.497 284.847 578.323 279.657C588.307 273.458 596.727 265.038 602.926 255.054C611.591 240.124 616.687 223.394 617.818 206.17C618.197 195.206 619.937 184.331 622.998 173.797C625.166 165.432 630.356 158.166 637.566 153.401C639.135 152.495 640.794 151.762 642.515 151.212C644.361 150.623 646.311 150.488 648.249 150.488V150.488C650.588 150.47 652.869 151.221 654.74 152.624C656.612 154.028 657.971 156.007 658.608 158.257C661.211 164.783 662.847 171.654 663.464 178.653C665.472 192.404 669.395 205.808 675.119 218.472C679.879 227.779 685.749 236.475 692.6 244.37C701.017 253.111 709.758 261.204 718.499 269.298C727.159 277.745 735.167 286.836 742.455 296.491C751.843 308.146 761.232 319.8 771.591 328.865L789.546 345.217C789.662 345.322 789.636 345.279 789.739 345.397V345.397C791.122 346.977 792.958 345.939 792.958 343.839V300.624C792.958 291.993 791.025 282.956 784.27 277.582C783.318 276.825 782.328 276.113 781.303 275.449C772.681 269.077 763.466 263.548 753.786 258.938C741.38 253.411 729.373 247.029 717.852 239.838C702.086 229.858 690.559 214.411 685.478 196.458C683.791 190.672 682.919 184.679 682.888 178.653C682.254 171.761 682.254 164.825 682.888 157.934C683.726 152.465 685.952 147.303 689.352 142.939C692.753 138.575 697.215 135.155 702.312 133.006C711.079 129.542 720.197 127.045 729.506 125.56C741.722 122.165 753.549 117.499 764.793 111.64C772.069 107.631 778.258 101.91 782.827 94.9725C787.396 88.0347 790.206 80.0884 791.015 71.8208C792.763 59.8085 790.607 47.5521 784.864 36.8577C780.721 30.0768 774.465 24.8447 767.059 21.966C759.844 18.9214 752.367 16.5376 744.721 14.8439C739.552 13.6817 734.469 12.1674 729.506 10.3116C724.501 7.9489 720.245 4.25247 717.204 -0.371558V-0.371558C715.456 -2.95799 712.259 -3.93262 709.138 -3.93262L694.635 -3.93262C690.507 -3.93262 686.038 -1.90888 686.126 2.2183V2.2183C685.592 7.31597 684.394 12.3221 682.565 17.11C682.021 19.1804 680.918 21.0611 679.376 22.5459C677.834 24.0306 675.913 25.0621 673.824 25.5271C668.488 26.7313 663.082 27.5964 657.637 28.1169L632.71 30.383H624.293C611.217 30.7931 598.44 26.4191 588.358 18.0812C582.848 13.2405 578.292 7.41553 574.922 0.907661C574.594 0.274719 574.356 -0.406521 574.048 -1.04936V-1.04936C572.953 -3.33514 570.175 -3.93262 567.64 -3.93262L544.331 -3.93262V-3.93262C541.193 -3.93262 544.831 1.80639 546.111 4.67056C548.58 10.1914 551.791 15.3576 555.661 20.0236C567.179 34.1845 582.601 44.653 600.013 50.1307C604.569 51.2814 609.236 51.9327 613.933 52.0731H627.854C632.056 51.7508 636.277 51.7508 640.479 52.0731C643.557 52.2338 646.572 53.0032 649.351 54.3368C652.129 55.6705 654.616 57.5419 656.666 59.8427C658.231 61.8899 659.435 64.189 660.227 66.6411C662.899 75.7415 662.752 85.4379 659.805 94.453C656.858 103.468 651.249 111.379 643.717 117.143C637.242 121.352 630.767 125.884 624.617 130.74C611.461 141.857 602.826 157.401 600.337 174.444C598.888 182.453 598.237 190.586 598.394 198.724C598.523 209.682 596.995 220.596 593.862 231.097C590.515 242.221 583.988 252.124 575.085 259.586C569.699 263.774 563.128 266.153 556.309 266.384V266.384C552.238 266.384 548.049 265.908 544.686 263.613C543.27 262.647 541.959 261.527 540.778 260.268C538.186 257.508 536.296 254.165 535.266 250.521C532.799 244.112 531.484 237.317 531.381 230.45C530.198 210.132 527.71 189.911 523.936 169.912C522.218 160.281 521.136 150.548 520.698 140.776C519.122 125.666 512.902 111.415 502.893 99.9856C498.037 94.1584 492.534 89.3024 487.678 83.7989C480.761 76.598 475.947 67.6417 473.757 57.9003C471.491 49.4833 469.872 40.7425 467.606 32.3254C465.486 24.4493 460.531 11.7542 456.719 1.93244C456.216 0.634344 456.208 -0.82386 455.768 -2.14481V-2.14481V-2.14481C455.338 -3.43592 453.893 -3.93262 452.533 -3.93262L408.958 -3.93262Z" fill="white" fill-opacity="0.2"/>
<path d="M-12.1626 290.017L7.26133 292.931C28.7016 296.809 48.0175 308.306 61.6484 325.304C65.399 329.798 68.655 334.682 71.3604 339.872C78.551 354.984 82.6246 371.389 83.3385 388.108L-nan -nanL-nan -nanL83.3385 388.108C83.7123 398.495 85.2323 408.81 87.8708 418.863C90.248 428.895 95.677 437.943 103.41 444.762C108.596 448.829 114 452.611 119.597 456.092L125.747 460.301C131.828 464.294 137.221 469.239 141.722 474.943C142.106 475.43 142.905 477.783 142.905 478.404V478.404C142.905 478.759 142.617 479.077 142.261 479.077H114.417H108.59H104.705C103.331 478.886 101.944 478.811 100.56 478.853C98.7872 478.906 97.0029 479.018 95.239 479.207V479.207C88.7972 479.899 82.5082 482.315 76.0295 482.315H-4.87865C-10.5106 482.315 -15.0762 477.749 -15.0762 472.117V463.862C-15.0762 462.789 -14.2066 461.919 -13.1338 461.919V461.919C-10.6621 462.238 -8.15972 462.238 -5.68798 461.919H6.61386H19.4504C22.9706 461.919 26.4907 461.615 29.9168 460.807C36.6541 459.216 43.259 457.099 49.6703 454.474C53.2575 453.168 56.4503 450.965 58.9439 448.075C61.4376 445.184 63.1489 441.703 63.9145 437.963C65.8764 428.595 66.8529 419.046 66.8281 409.475C67.4757 400.206 67.4757 390.903 66.8281 381.634C66.3954 368.45 63.0804 355.522 57.1162 343.757C50.5595 329.96 38.9787 319.19 24.7429 313.65C17.6467 311.309 10.1988 310.213 2.72907 310.413H-11.8389V310.413C-13.6268 310.413 -15.0762 308.963 -15.0762 307.175V290.665M-13.997 289.765C-14.6615 290.319 -15.5804 290.402 -16.4452 290.382V290.382C-17.4009 290.361 -17.9898 291.291 -17.9898 292.246V310.046C-17.9898 311.052 -17.3773 312.031 -16.3712 312.031V312.031V312.031C-15.2744 312.031 -14.1878 311.707 -13.091 311.707H3.0528C10.3106 311.51 17.5455 312.607 24.4192 314.945C38.6466 320.155 50.2676 330.73 56.7924 344.404C62.9517 355.862 66.2816 368.627 66.5044 381.634C67.152 390.903 67.152 400.206 66.5044 409.475C66.4975 418.938 65.5213 428.375 63.5908 437.639C63.006 441.194 61.4602 444.521 59.1207 447.26C56.7812 449.998 53.737 452.045 50.3178 453.179C41.8936 455.76 33.2064 457.389 24.4192 458.035H6.29013H-2.77439C-5.24678 458.343 -7.74785 458.343 -10.2202 458.035L-nan -nanL-nan -nanL-10.2202 458.035C-10.8553 457.99 -11.4905 458.117 -12.0599 458.402V458.402C-13.1682 458.956 -13.4576 460.312 -13.4576 461.552V475.212C-13.4576 477.937 -15.5343 481.667 -12.8101 481.667V481.667H76.7014C82.9506 481.667 89.0084 479.34 95.2127 478.593V478.593C96.9925 478.378 98.7943 478.231 100.586 478.183C101.854 478.149 103.125 478.231 104.381 478.43C106.001 478.778 107.602 479.203 109.179 479.701C112.699 480.813 116.322 481.667 120.014 481.667H143.373C145.26 481.667 146.79 479.988 146.79 478.101V478.101C146.79 477.376 146.562 476.818 146.125 476.24C141.53 470.161 135.957 464.884 129.632 460.624C121.863 455.445 114.093 450.912 106.971 445.085C99.5407 438.39 94.343 429.576 92.0793 419.834C89.4046 409.228 87.7782 398.385 87.2233 387.461C86.545 370.736 82.4696 354.324 75.2452 339.225C72.4697 333.9 69.1033 328.904 65.2095 324.333C51.2982 307.18 31.6219 295.673 9.85119 291.96L-8.97351 287.905C-10.3734 287.604 -11.8342 287.963 -12.9344 288.88L-13.997 289.765Z" fill="white" fill-opacity="0.2"/>
<path d="M158.102 -3.93262H166.876C168.645 -3.93262 170.08 -3.10802 170.08 -1.33838V-1.33838C170.08 -1.10122 170.106 -0.254727 170.159 -0.0235571C172.526 10.3104 176.428 20.2324 181.734 29.4118C184.648 34.5916 187.561 39.4476 190.151 44.6273L203.748 69.5547C208.605 79.6883 215.053 88.9784 222.848 97.072C227.064 101.407 232.093 104.869 237.648 107.257C243.203 109.646 249.175 110.915 255.222 110.992H258.135C262.717 110.613 267.166 109.262 271.185 107.029C275.204 104.796 278.701 101.733 281.444 98.0432C287.904 88.3608 291.905 77.2484 293.098 65.6699C293.098 57.5766 294.717 49.1595 295.364 41.39V38.4764C295.364 26.1745 297.954 13.8727 299.573 2.2183V-0.0478251V-0.0478251C299.375 -1.52201 300.683 -2.63769 302.171 -2.63769H311.255C319.747 -2.63769 326.114 5.25057 322.706 13.0278C322.247 14.0743 321.766 15.1116 321.263 16.1388C314.87 30.8895 310.618 46.4785 308.638 62.4326V62.4326C308.638 64.1564 308.505 65.8784 308.208 67.5765C306.439 77.7004 303.877 87.6709 300.544 97.3957C298.957 103.797 295.972 109.767 291.803 114.877C288.412 118.707 284.215 121.739 279.513 123.754C274.812 125.769 269.722 126.718 264.61 126.532H261.262C258.104 126.532 254.941 126.308 251.87 125.571C243.54 123.571 235.603 120.152 228.413 115.452C219.896 109.886 212.605 102.64 206.985 94.1584C200.811 85.4549 195.188 76.3725 190.151 66.9648L-nan -nanL-nan -nanL190.151 66.9648L184.324 57.2529C177.831 46.8349 171.993 36.0229 166.843 24.8796C162.449 15.7883 159.5 6.06744 158.102 -3.93262M167.897 -3.93262C162.674 -3.93262 158.58 0.625421 159.704 5.72639C161.105 12.0849 163.17 18.288 165.871 24.2321C172.384 38.9913 179.734 53.3668 187.885 67.2886C193.13 77.0958 199.081 86.5088 205.691 95.4533C211.432 104.03 218.88 111.331 227.569 116.901C235.025 121.68 243.258 125.097 251.883 127.005C254.735 127.635 257.66 127.827 260.581 127.827H264.286C269.567 127.982 274.819 126.992 279.681 124.925C284.543 122.857 288.9 119.76 292.451 115.848C296.724 110.638 299.816 104.564 301.515 98.0432C305.228 86.0541 308.148 73.8338 310.256 61.4614C313.101 45.8835 317.999 30.7518 324.824 16.4625V16.4625C329.939 6.42361 321.311 -3.93262 310.044 -3.93262L305.621 -3.93262C302.779 -3.93262 299.594 -2.86886 299.249 -0.0478251V-0.0478251C297.082 12.5992 295.57 25.3497 294.717 38.1526C294.717 46.1328 294.717 53.8945 293.28 61.7968C292.65 65.2626 292.076 68.7451 291.549 72.228C290.076 81.9418 286.409 91.2178 280.797 99.3381C278.166 102.913 274.761 105.847 270.837 107.921C266.913 109.995 262.571 111.156 258.135 111.316H255.545C244.125 110.863 233.329 105.988 225.438 97.7194C217.706 89.7663 211.359 80.5747 206.662 70.5259C199.54 56.9291 191.77 43.6561 184.648 30.383C179.727 21.8896 176.018 12.7552 173.623 3.24495C173.182 1.49117 173.167 -0.42285 172.27 -1.99308V-1.99308C172.235 -2.05476 172.198 -2.11569 172.161 -2.17582C171.294 -3.56557 169.535 -3.93262 167.897 -3.93262V-3.93262Z" fill="white" fill-opacity="0.2"/>
<path d="M33.8044 -0.371558C35.6485 -2.62547 38.4069 -3.93262 41.3191 -3.93262H61.2717C68.0497 -3.93262 73.0409 2.45656 70.3862 8.69296V8.69296C63.282 23.7954 52.0611 36.5872 38.0129 45.5985C30.1763 51.2217 20.7883 54.2756 11.1431 54.3393C8.34661 54.6603 5.52256 54.6603 2.72606 54.3393L-9.88994 52.4469C-10.1118 52.4136 -10.3359 52.3969 -10.5603 52.3969V52.3969C-13.056 52.3969 -15.0792 50.3737 -15.0792 47.8779V11.4229C-15.0792 9.80025 -13.9741 8.2383 -12.3828 8.5561V8.5561C-12.0214 8.62827 -11.6545 8.69296 -11.286 8.69296H14.3804C21.7402 8.12723 28.6434 4.90573 33.8044 -0.371558V-0.371558ZM40.0794 -3.93262C37.8876 -3.93262 35.7448 -3.28384 33.9211 -2.06804V-2.06804C33.1983 -1.58618 32.5417 -1.01383 31.9211 -0.406013C27.2114 4.20656 20.9887 6.98593 14.3804 7.39803H8.55325L-6.01472 6.75056H-10.547V6.75056C-13.5734 6.46442 -15.0792 9.82991 -15.0792 12.8698V33.3524C-15.0792 44.7157 -6.86398 54.4135 4.34472 56.2817V56.2817C7.14122 56.6026 9.96527 56.6026 12.7618 56.2817C22.6715 56.3051 32.3234 53.1256 40.2791 47.2171C54.3967 38.0041 65.6199 24.9851 72.6523 9.66415V9.66415C74.9739 2.7427 69.4478 -3.93262 62.1474 -3.93262L40.0794 -3.93262Z" fill="white" fill-opacity="0.2"/>
<path d="M459.823 6.42683C458.218 1.28866 462.056 -3.93262 467.439 -3.93262H481.001C482.59 -3.93262 484.261 -3.45608 485.014 -2.05748V-2.05748C485.404 -1.33469 485.644 -0.541311 485.722 0.275907L-nan -nanL-nan -nanL485.722 0.275907C488.417 7.27352 492.491 13.6586 497.7 19.0524C498.449 19.984 499.382 20.7519 500.44 21.3088C501.498 21.8656 502.659 22.1995 503.851 22.2897V22.2897C505.129 22.2897 506.444 22.0619 507.413 21.228C507.987 20.7343 508.485 20.1534 508.888 19.5034C509.633 18.2992 510.019 16.9074 510.002 15.4913L-nan -nanL-nan -nanL510.002 15.4913C510.314 11.829 510.314 8.14675 510.002 4.48443C509.674 2.66456 509.674 0.80085 510.002 -1.01902L-nan -nanL-nan -nanL510.002 -1.01902C510.002 -1.01902 510.002 -1.7342 510.002 -2.47581C510.002 -3.28038 510.654 -3.93262 511.459 -3.93262H527.539C535.364 -3.93262 542.011 1.40655 545.786 8.26083C546.723 9.96284 547.746 11.6198 548.85 13.2252C555.65 22.9602 564.35 31.2192 574.425 37.5052C584.063 44.2189 595.159 48.5463 606.798 50.1307H632.049C636.9 49.9333 641.743 50.7037 646.293 52.3969C649.785 53.3523 652.927 55.2968 655.339 57.9964C657.751 60.6959 659.332 64.0353 659.89 67.6123C660.569 73.3114 660.569 79.071 659.89 84.7701C659.602 90.516 658.062 96.1295 655.378 101.218C653.695 104.408 651.588 107.344 649.121 109.949C646.197 113.037 643.079 116.011 640.607 119.472V119.472C637.741 123.484 634.176 126.985 630.107 129.769V129.769C615.295 140.602 605.212 156.711 601.942 174.768C600.545 183.332 599.787 191.989 599.676 200.666C599.676 203.58 599.676 206.494 599.676 209.731C599.326 221.571 596.34 233.183 590.935 243.723C588.39 249.966 584.338 255.481 579.141 259.774C574.944 263.241 570.107 265.824 564.919 267.386C562.445 268.13 559.85 268.327 557.267 268.327V268.327C552.142 267.897 547.276 265.893 543.335 262.59C539.394 259.286 536.571 254.845 535.253 249.874C532.172 241.091 530.214 231.954 529.426 222.68V218.472C529.152 210.341 528.396 202.233 527.16 194.192C524.246 176.386 521.009 155.991 519.066 135.92C517.827 120.945 511.418 106.868 500.937 96.1008L495.758 90.921L487.017 81.8565C483.139 77.4676 480.07 72.4256 477.952 66.9648C474.82 59.4183 472.329 51.6211 470.506 43.6561C467.671 31.0495 464.104 18.6187 459.823 6.42683V6.42683ZM480.82 -3.93262C468.284 -3.93262 459.683 8.75078 463.597 20.6604C466.128 28.3623 468.432 36.1388 470.506 43.9798C472.064 52.0096 474.229 59.9097 476.981 67.6123C479.044 73.1969 482.117 78.3545 486.046 82.8277L499.966 97.072C510.306 107.51 516.614 121.273 517.771 135.92C519.714 155.668 522.627 175.092 525.865 194.192C527.483 203.904 527.807 213.939 528.455 223.651C528.881 232.628 530.292 241.53 532.663 250.198C534.254 255.499 537.502 260.151 541.929 263.471C546.357 266.792 551.732 268.607 557.267 268.65V268.65C560.065 268.65 562.875 268.419 565.541 267.571C570.774 265.906 575.655 263.26 579.919 259.759C585.269 255.366 589.49 249.757 592.23 243.399C597.441 232.486 600.098 220.529 600 208.436C600.057 196.736 600.922 185.054 602.589 173.473C604.417 164.58 607.99 156.139 613.102 148.637C618.215 141.135 624.765 134.722 632.373 129.769L649.854 117.143C654.714 113.244 658.655 108.322 661.397 102.726C664.139 97.1309 665.614 91.0002 665.717 84.7701C666.364 78.9609 666.364 73.0978 665.717 67.2886C665.143 63.4595 663.456 59.8836 660.866 57.0057C658.276 54.1277 654.897 52.0747 651.149 51.1019C646.46 49.5146 641.531 48.748 636.581 48.8358H611.654C600.012 47.4744 588.889 43.2477 579.281 36.534C569.226 30.4744 560.609 22.3 554.029 12.5777V12.5777C546.436 3.85944 536.615 -3.93262 525.053 -3.93262L511.944 -3.93262C510.326 -3.93262 511.944 -1.01902 511.944 0.59964C512.267 5.99035 512.267 11.3956 511.944 16.7863C511.944 18.9492 511.944 21.338 509.87 22.6325C508.958 23.2012 507.839 23.2609 506.765 23.2609V23.2609C505.742 23.1769 504.75 22.8731 503.856 22.3702C502.962 21.8673 502.187 21.1773 501.585 20.3473C496.463 15.0078 492.399 8.74657 489.607 1.89457C489.143 0.544051 488.376 -0.682787 487.367 -1.69257C487.058 -2.00143 486.729 -2.28749 486.382 -2.54909C484.818 -3.72905 482.779 -3.93262 480.82 -3.93262V-3.93262Z" fill="white" fill-opacity="0.2"/>
<path d="M470.52 326.274C475.77 326.297 480.874 327.998 485.088 331.13C489.607 334.83 493.536 339.197 496.742 344.079C503.429 355.212 509.002 366.975 513.382 379.198C513.729 380.165 513.9 381.185 513.9 382.212V382.212C513.9 383.327 514.103 384.432 514.506 385.471C518.588 395.987 523.249 406.27 528.468 416.271C531.936 422.114 533.091 429.043 531.705 435.695C530.15 446.415 529.392 457.236 529.439 468.068C529.391 468.492 529.357 468.917 529.338 469.342C529.281 470.605 529.439 473.541 529.439 474.806V474.806C529.439 475.686 528.726 476.809 527.847 476.809H498.079C495.968 476.809 493.843 476.089 492.626 474.363C492.396 474.036 492.179 473.699 491.975 473.353C491.69 472.867 491.563 472.307 491.563 471.743V471.743C491.563 471.036 491.351 470.346 490.964 469.754C487.295 464.141 484.239 458.15 481.851 451.882C475.45 432.496 473.243 411.971 475.376 391.668V388.754C476.022 382.62 476.022 376.435 475.376 370.301C474.978 366.178 473.074 362.346 470.028 359.539C466.982 356.732 463.008 355.146 458.866 355.086V355.086C457.142 355.086 455.418 355.209 453.726 355.539C444.151 357.411 435.015 361.1 426.816 366.416C420.994 370.028 415.755 374.504 411.277 379.689C403.692 388.63 398.166 399.13 395.09 410.444C388.904 430.874 383.824 451.623 379.875 472.601L-nan -nanL-nan -nanL379.875 472.601C379.875 473.315 379.875 473.898 379.875 474.382C379.875 475.365 379.078 476.162 378.094 476.162H354.722C345.74 476.162 338.913 467.741 343.94 460.299V460.299C347.371 455.475 351.044 450.828 354.947 446.378C361.6 438.869 367.358 430.613 372.105 421.775C375.622 415.383 378.756 408.789 381.493 402.027C383.165 397.594 385.111 393.269 387.321 389.078C392.688 378.117 400.169 368.325 409.334 360.265C421.428 349.407 434.305 339.452 447.859 330.482C452.56 326.906 457.967 324.368 463.722 323.036C466.194 322.721 468.695 322.721 471.167 323.036M471.167 324.658C471.167 323.762 470.441 323.036 469.545 323.036H464.147C463.649 323.036 463.152 323.087 462.667 323.201C457.065 324.519 451.799 326.998 447.211 330.482C433.698 339.769 420.728 349.821 408.363 360.589C399.085 368.748 391.496 378.647 386.026 389.725C380.846 400.732 376.637 412.063 370.81 422.098C366.1 430.781 360.455 438.922 353.976 446.378C350.033 450.795 346.357 455.443 342.969 460.299V460.299C337.192 468.652 345.029 478.104 355.186 478.104H377.609C379.875 478.104 379.875 475.191 380.199 473.248C384.299 451.666 389.479 430.947 395.738 411.092C398.78 399.927 404.19 389.548 411.601 380.661C415.972 375.583 421.105 371.214 426.816 367.711C434.801 362.5 443.724 358.912 453.075 357.141C454.769 356.82 456.494 356.704 458.218 356.704V356.704C462.068 356.771 465.757 358.265 468.568 360.897C471.379 363.529 473.113 367.111 473.434 370.949C474.404 377.929 474.404 385.011 473.434 391.991C471.354 412.508 473.559 433.233 479.908 452.853C482.234 458.972 485.221 464.816 488.817 470.281C489.553 471.401 490.159 472.607 490.813 473.776V473.776C492.766 477.266 496.972 478.428 500.971 478.428H525.231C530.773 478.428 535.266 473.935 535.266 468.392V468.392C535.23 458.89 535.89 449.399 537.242 439.997C537.624 437.344 537.962 434.665 537.676 432C537.097 426.599 535.164 421.408 532.029 416.919C526.247 406.476 521.164 395.661 516.814 384.545C512.127 370.642 505.94 357.29 498.361 344.726C495.255 339.575 491.189 335.069 486.383 331.453C482.44 328.443 477.707 326.668 472.781 326.332C471.89 326.271 471.167 325.551 471.167 324.658V324.658Z" fill="white" fill-opacity="0.2"/>
<path d="M458.883 359.618C460.629 359.599 462.361 359.934 463.974 360.601C465.588 361.269 467.049 362.256 468.272 363.503C470.782 366.4 472.609 369.824 473.618 373.523C474.186 375.605 474.486 377.744 474.516 379.889C474.564 383.219 474.099 386.545 474.099 389.876C474.099 391.718 474.099 393.519 474.099 395.229V408.178C473.92 416.638 474.57 425.096 476.041 433.429C477.255 446.013 481.234 458.173 487.696 469.04L489.638 471.63V471.63C492.278 475.583 489.058 480.37 484.304 480.37H426.401C401.886 480.37 383.042 458.253 389.928 434.724V434.724L392.194 426.307C395.217 408.029 404.076 391.22 417.446 378.395C428.368 368.091 442.343 361.615 457.265 359.942H458.883M459.208 359.129C459.012 359.62 458.537 359.942 458.008 359.942H457.265C442.036 361.77 427.767 368.339 416.474 378.718C403.03 391.794 394.077 408.795 390.899 427.278C385.736 445.172 381.522 463.327 378.274 481.665L-nan -nanL-nan -nanL378.274 481.665H480.607C487.655 481.665 492.438 474.581 488.155 468.984V468.984C487.853 468.588 487.57 468.176 487.326 467.742C481.323 457.079 477.59 445.286 476.365 433.105C474.903 424.88 474.252 416.531 474.422 408.178C474.422 400.408 474.422 392.639 476.041 384.869C476.771 380.923 476.597 376.863 475.531 372.994C474.466 369.125 472.537 365.548 469.89 362.532C468.526 361.183 466.908 360.116 465.13 359.394C463.621 358.781 462.021 358.426 460.398 358.342C459.874 358.315 459.403 358.642 459.208 359.129V359.129Z" fill="white" fill-opacity="0.2"/>
<path d="M10.1719 328.541C12.534 328.205 14.9319 328.205 17.294 328.541C25.3279 330.037 32.7205 333.931 38.499 339.709C44.2775 345.488 48.171 352.881 49.6673 360.914C53.196 374.173 53.196 388.123 49.6673 401.381C48.2646 408.621 44.8468 415.317 39.807 420.701C34.7673 426.084 28.3103 429.935 21.1788 431.812C10.5469 434.099 -0.32493 435.078 -11.1944 434.726V434.726C-13.34 434.726 -15.0792 432.986 -15.0792 430.841V412.712C-15.0792 411.281 -13.9197 410.122 -12.4894 410.122V410.122H-6.01472C-2.56908 410.444 0.899077 410.444 4.34472 410.122C13.0402 408.687 20.8729 404.021 26.2752 397.058C31.6776 390.095 34.2511 381.348 33.4807 372.569C33.6272 367.072 31.7705 361.71 28.2564 357.482C25.5057 354.171 21.8864 351.732 17.8393 350.416C15.5853 349.682 13.1897 349.584 10.8194 349.584V349.584H5.96338C0.302051 350.346 -5.26484 351.69 -10.6486 353.597C-11.0102 353.725 -11.3906 353.792 -11.7742 353.792V353.792C-13.5995 353.792 -15.0792 352.313 -15.0792 350.487V339.602C-15.0792 335.103 -11.4314 331.455 -6.93149 331.455V331.455C-6.32223 331.455 -5.71534 331.384 -5.11947 331.257C-0.626093 330.3 3.95729 329.823 8.55325 329.836M9.21928 329.614C8.78013 329.76 8.31527 329.812 7.85412 329.772C3.1317 329.36 -1.61897 329.382 -6.33846 329.836V329.836C-11.2669 330.201 -15.0792 334.306 -15.0792 339.248V353.423C-15.0792 354.052 -14.7374 354.7 -14.108 354.7V354.7V354.7C-13.4418 354.7 -12.7861 354.44 -12.1198 354.44H-11.5875C-11.1114 354.44 -10.6375 354.38 -10.1748 354.268C-4.88738 352.99 0.523489 352.288 5.96338 352.174H10.8194V352.174C13.1886 352.174 15.5859 352.295 17.8165 353.094C21.5416 354.427 24.8538 356.763 27.3704 359.875C29.7138 362.772 31.2555 366.204 31.8807 369.829C32.3758 372.7 32.4704 375.64 32.4489 378.553C32.4282 381.345 32.0465 384.128 31.3085 386.833C30.1856 390.95 28.2601 394.803 25.6427 398.173C23.0252 401.542 19.7676 404.361 16.0569 406.468C12.3463 408.574 8.25591 409.926 4.02099 410.446H-10.547V410.446C-13.7968 410.446 -15.0792 413.835 -15.0792 417.085V436.02C-15.0792 437.451 -13.9197 438.61 -12.4894 438.61V438.61C-1.61875 439.003 9.25801 438.024 19.8839 435.697C27.3816 433.694 34.1453 429.577 39.3685 423.837C44.5918 418.097 48.0544 410.976 49.3436 403.323C52.91 389.741 52.91 375.468 49.3436 361.886C47.6478 353.941 43.6887 346.656 37.9442 340.912C32.1997 335.167 24.9153 331.208 16.9703 329.512C14.6049 329.208 12.2115 329.195 9.84371 329.473C9.63123 329.498 9.42224 329.546 9.21928 329.614V329.614Z" fill="white" fill-opacity="0.2"/>
<path d="M11.1431 350.231C15.36 350.41 19.4129 351.915 22.7257 354.53C26.0384 357.146 28.4424 360.739 29.5959 364.799C31.0253 369.479 31.447 374.408 30.8332 379.263C30.2194 384.117 28.584 388.787 26.0348 392.963C23.8756 396.712 20.9869 399.99 17.5395 402.603C14.0921 405.217 10.1559 407.112 5.96339 408.179C1.02015 408.819 -3.98508 408.819 -8.92832 408.179V408.179C-12.3254 408.179 -15.0792 405.425 -15.0792 402.028V358.144C-15.0792 356.634 -13.8553 355.41 -12.3456 355.41V355.41C-12.0126 355.41 -11.6826 355.349 -11.3706 355.233C-4.88146 352.815 1.95456 351.454 8.87698 351.202M10.7153 349.531C9.54307 350.596 7.98055 351.114 6.39837 351.034C0.737685 350.744 -4.93992 351.105 -10.5229 352.11C-10.7544 352.151 -10.989 352.173 -11.2242 352.173V352.173C-13.3533 352.173 -15.0792 353.899 -15.0792 356.028V401.057C-15.0792 405.169 -11.7456 408.503 -7.63339 408.503V408.503C-2.69014 409.143 2.31508 409.143 7.25832 408.503C11.8818 407.237 16.2054 405.059 19.9744 402.097C23.7434 399.135 26.8818 395.449 29.2046 391.256C31.5275 387.063 32.9879 382.447 33.4998 377.681C34.0118 372.915 33.565 368.095 32.1857 363.504C30.9578 359.16 28.3855 355.316 24.8377 352.524C21.9022 350.214 18.4238 348.723 14.7552 348.18C13.2791 347.961 11.8195 348.527 10.7153 349.531V349.531Z" fill="white" fill-opacity="0.2"/>
<path d="M189.525 133.976H190.3C192.146 133.976 193.987 134.246 195.722 134.878C201.315 136.916 206.631 139.658 211.539 143.041L-nan -nanL-nan -nanL211.539 143.041C222.869 150.487 234.524 157.933 243.912 165.378C250.295 169.243 256.207 173.828 261.533 179.04C263.643 181.104 265.881 183.046 267.924 185.177C269.97 187.312 271.697 189.743 273.042 192.395C275.057 196.37 276.165 200.743 276.285 205.198C276.22 208.545 275.435 211.839 273.982 214.856C272.53 217.872 270.444 220.541 267.868 222.679C262.13 228.674 255.462 233.703 248.12 237.571L243.912 239.837C235.171 244.693 226.43 249.873 218.013 255.7C215.643 257.366 213.196 258.921 210.683 260.36C208.906 261.377 206.948 262.151 204.903 262.054V262.054C203.711 261.997 202.502 261.929 201.343 261.646C197.912 260.809 195.954 257.434 195.676 252.139C195.393 248.151 195.393 244.148 195.676 240.161C197.933 228.785 198.237 217.121 196.587 205.667C196.075 202.11 195.812 198.487 194.925 195.005C193.869 190.861 191.95 186.703 190.82 182.86C189.201 177.357 186.935 169.587 185.64 163.112C183.764 156.26 182.892 149.172 183.05 142.07C183.05 135.919 185.64 132.681 190.172 132.681M189.525 133.005C189.686 132.924 189.627 132.693 189.447 132.706C184.721 133.029 182.064 136.582 181.755 143.365C181.656 150.571 182.527 157.757 184.345 164.731C186.935 177.357 191.467 189.335 194.381 201.96C196.971 214.998 196.971 228.418 194.381 241.456C194.061 245.442 194.061 249.447 194.381 253.434C194.381 259.345 196.834 263.026 200.63 264.107C202.242 264.566 203.947 264.695 205.623 264.727V264.727C207.63 264.764 209.547 264.011 211.303 263.039C213.859 261.624 216.317 260.038 218.661 258.29C228.373 251.491 238.732 245.988 249.092 240.161C256.638 235.522 263.32 229.607 268.839 222.679C273.454 218.143 276.124 211.99 276.285 205.521C276.395 201.229 275.651 196.958 274.095 192.956C272.538 188.955 270.202 185.302 267.221 182.213C261.077 175.723 254.112 170.064 246.502 165.378L211.539 142.717C205.77 138.787 199.502 135.646 192.901 133.376C192.809 133.345 192.713 133.329 192.616 133.329H189.601C189.421 133.329 189.364 133.086 189.525 133.005V133.005Z" fill="white" fill-opacity="0.2"/>
<path d="M429.724 410.119C430.346 410.152 430.954 410.313 431.511 410.591C432.068 410.87 432.562 411.26 432.962 411.738C435.063 413.942 436.438 416.738 436.901 419.748C437.364 422.758 436.893 425.838 435.551 428.572C435.001 430.006 434.084 431.269 432.89 432.235C432.044 432.92 431.081 433.438 430.051 433.767C429.206 434.038 428.34 434.301 427.457 434.389V434.389C425.938 434.542 424.562 433.582 423.661 432.35C423.053 431.519 422.55 430.614 422.166 429.653C421.494 427.974 421.201 426.168 421.307 424.363C421.319 422.024 421.883 419.72 422.951 417.639C423.674 416.233 424.613 414.954 425.731 413.85C426.779 412.814 428.251 412.385 429.724 412.385V412.385M429.724 411.686C429.724 412.04 429.389 412.298 429.038 412.251C428.423 412.169 427.798 412.186 427.187 412.301C426.937 412.349 426.704 412.462 426.503 412.618C424.844 413.908 423.45 415.51 422.402 417.334C421.29 419.27 420.59 421.415 420.347 423.635C420.103 425.855 420.322 428.101 420.989 430.232C421.393 431.523 421.956 432.755 422.663 433.9C423.581 435.388 424.899 436.655 426.56 437.201V437.201C428.178 437.733 429.964 437.555 431.496 436.81C432.231 436.452 432.925 436.007 433.56 435.482C434.858 434.41 435.874 433.038 436.523 431.485C438.018 428.567 438.572 425.256 438.108 422.01C437.644 418.763 436.185 415.74 433.933 413.356C433.418 412.717 432.78 412.187 432.058 411.798C431.51 411.503 430.922 411.293 430.313 411.175C430 411.114 429.724 411.367 429.724 411.686V411.686Z" fill="white" fill-opacity="0.2"/>
<path d="M94.3229 173.795C96.2306 173.82 98.0989 174.34 99.7448 175.305C101.391 176.27 102.757 177.646 103.711 179.298C105.009 181.374 105.889 183.683 106.301 186.097C107.276 193.077 107.276 200.159 106.301 207.139C106.301 209.082 106.301 211.024 106.301 212.967C105.519 222.014 105.519 231.112 106.301 240.16V246.311C106.301 254.404 106.301 263.145 106.301 271.562C106.757 280.024 105.547 288.494 102.74 296.49C100.798 301.346 98.2077 303.935 93.9992 303.935V303.935C91.4263 303.935 88.8484 303.569 86.4888 302.544C83.3474 301.178 80.3704 299.454 77.6179 297.405C77.1105 297.027 76.4979 296.813 75.8653 296.813V296.813C75.2387 296.813 74.6297 296.606 74.1331 296.224L37.0222 267.677C33.7079 265.231 30.6588 262.453 27.9211 259.388C25.4447 256.616 22.8073 253.929 20.7565 250.829C18.6515 247.646 17.3914 243.943 17.1469 240.071C16.7837 234.321 18.6892 228.658 22.4543 224.297C24.534 221.243 27.1697 218.607 30.2239 216.528L45.4393 205.197C54.5038 198.722 63.5683 191.924 71.9854 184.802C77.2208 179.785 83.4007 175.859 90.1651 173.252C90.3466 173.182 90.5337 173.126 90.7253 173.093C91.9166 172.887 93.1367 172.905 94.3229 173.147L-nan -nanL94.3229 173.147M94.3229 172.349C94.3229 172.79 93.9654 173.147 93.5243 173.147H90.7488C90.3292 173.147 89.9123 173.22 89.52 173.369C82.6194 175.99 76.3224 179.99 71.0142 185.126C57.7411 196.456 43.1732 206.168 29.5764 217.499C26.3882 219.768 23.5521 222.495 21.1593 225.592C17.3656 230.249 15.4597 236.162 15.8194 242.157C16.1792 248.153 18.7783 253.795 23.1017 257.965C26.9945 262.324 31.4594 266.135 36.3748 269.296C49.3241 279.008 62.5971 288.396 75.8702 297.785C78.9852 300.11 82.3442 302.082 85.8848 303.666C88.427 304.804 91.214 305.23 93.9992 305.23V305.23C96.3689 305.14 98.6413 304.264 100.458 302.74C102.275 301.216 103.534 299.131 104.035 296.813C106.843 288.706 108.052 280.13 107.596 271.562C107.596 260.879 107.596 250.52 107.596 239.189C106.949 230.136 106.949 221.048 107.596 211.995C108.889 203.085 108.889 194.036 107.596 185.126C107.074 182.538 106.203 180.033 105.006 177.68C103.877 175.847 102.309 174.325 100.443 173.251C98.8154 172.314 97.0059 171.744 95.1414 171.576C94.6939 171.536 94.3229 171.899 94.3229 172.349V172.349Z" fill="white" fill-opacity="0.2"/>
<path d="M445.562 200.988V200.988C448.141 200.988 450.76 201.216 453.089 202.324C454.45 202.972 455.741 203.766 456.938 204.694C459.162 206.417 461.018 208.57 462.396 211.024C463.896 213.591 464.843 216.443 465.178 219.397C465.512 222.352 465.226 225.344 464.338 228.181C462.704 233.004 460.055 237.419 456.569 241.131C453.254 244.93 449.685 248.499 445.886 251.814L440.059 257.641C427.958 270.216 416.504 283.398 405.743 297.136C398.153 306.507 389.205 314.69 379.197 321.416C373.427 325.045 366.884 327.263 360.097 327.891C358.601 328.045 357.092 327.796 355.726 327.17C354.36 326.544 353.186 325.563 352.327 324.33C351.47 322.914 351.017 321.291 351.017 319.636C351.017 319.308 351.035 318.981 351.07 318.657C351.354 316.04 352.797 313.702 354.009 311.365C355.299 308.879 356.794 306.502 358.478 304.259C369.977 289.431 378.947 272.804 385.024 255.051C388.74 243.859 394.812 233.593 402.829 224.944C410.978 217.094 420.12 210.346 430.023 204.873C434.608 202.32 439.685 200.775 444.915 200.34L-nan -nanL444.915 200.34M444.915 200.34C439.444 200.814 434.142 202.47 429.375 205.196C419.277 210.515 410.007 217.276 401.858 225.268C393.482 234.576 387.289 245.636 383.729 257.641C377.272 274.226 368.32 289.728 357.183 303.611C355.782 305.402 354.524 307.297 353.421 309.279C351.622 312.508 349.468 315.843 349.432 319.539C349.431 319.571 349.431 319.604 349.431 319.636C349.431 321.535 349.988 323.392 351.032 324.977C351.968 326.408 353.276 327.557 354.817 328.298C356.357 329.04 358.071 329.347 359.773 329.186L-nan -nanL-nan -nanL359.773 329.186C366.728 328.646 373.423 326.303 379.197 322.388C389.377 315.751 398.353 307.431 405.743 297.784C416.75 284.511 427.757 271.562 440.059 259.26C445.562 253.756 451.389 248.576 456.569 242.749C460.235 238.868 462.998 234.225 464.662 229.153C466.365 223.228 465.652 216.871 462.679 211.471C460.441 207.406 457.059 204.133 452.999 202.025C450.331 200.64 447.273 200.34 444.267 200.34V200.34H444.915Z" fill="white" fill-opacity="0.2"/>
<path d="M-12.1656 187.717V169.264C-12.1656 168.192 -11.296 167.322 -10.2232 167.322V167.322H3.04979C10.5196 167.521 17.9675 166.426 25.0636 164.085C39.2994 158.545 50.8803 147.775 57.4369 133.978C63.4011 122.213 66.7161 109.284 67.1489 96.1008C67.7964 86.8317 67.7964 77.5288 67.1489 68.2598C67.1736 58.688 66.1971 49.1399 64.2353 39.7713C63.4399 35.9954 61.68 32.4899 59.1269 29.5964C56.5739 26.703 53.3148 24.5203 49.6673 23.2609C41.5329 20.8473 33.1854 19.2212 24.7399 18.4049L6.61085 17.7575H-2.7774C-5.24913 17.439 -7.75151 17.439 -10.2232 17.7575L-nan -nanL-nan -nanL-10.2232 17.7575H-12.6512C-13.9922 17.7575 -15.0792 16.6704 -15.0792 15.3295V6.91243C-15.0792 0.922882 -10.2237 -3.93262 -4.2342 -3.93262H73.3618C81.5846 -3.93262 89.6811 -0.618506 97.9035 -0.69529V-0.69529H104.702H105.254C107.44 -0.69529 109.589 -1.25238 111.5 -2.31395V-2.31395C113.411 -3.37553 115.561 -3.93262 117.747 -3.93262H142.899C143.974 -3.93262 144.845 -3.90891 144.845 -2.83428V-2.83428C144.845 -2.41606 144.711 -1.16094 144.458 -0.827703C139.802 5.31195 134.13 10.6125 127.687 14.8439L120.565 20.3473C114.968 23.8282 109.564 27.6107 104.378 31.678C96.6451 38.4965 91.2162 47.5447 88.839 57.5766C86.0795 68.1557 84.5585 79.0197 84.3067 89.9499L-nan -nanL-nan -nanL84.3067 89.9499C83.5928 106.67 79.5191 123.075 72.3286 138.186C69.6232 143.376 66.3672 148.26 62.6166 152.754C48.9857 169.752 29.6698 181.249 8.22952 185.127L-11.1944 188.041M-11.5785 188.937C-11.3396 188.38 -10.8301 187.985 -10.2308 187.894L7.90578 185.127C29.6765 181.414 49.3528 169.907 63.2641 152.754C67.0813 148.241 70.4429 143.361 73.2998 138.186C80.4907 122.96 84.5633 106.45 85.2779 89.6261C85.8328 78.7021 87.4592 67.8589 90.1339 57.2529C92.3976 47.5106 97.5953 38.6971 105.026 32.0017C112.148 26.1745 119.917 21.6423 127.687 16.4625C133.473 12.7049 138.659 8.10305 143.073 2.81413C143.987 1.71837 145.37 -0.0358249 146.011 -1.31103V-1.31103C146.548 -2.37766 145.819 -3.93262 144.626 -3.93262H118.96C115.949 -3.93262 112.973 -3.3822 110.047 -2.67322C108.285 -2.24621 106.501 -1.91008 104.702 -1.66649C103.951 -1.54778 103.196 -1.4706 102.439 -1.43496C99.6356 -1.30289 96.7947 -1.41627 94.0022 -1.70033V-1.70033C88.6906 -2.24065 83.4716 -3.93262 78.1325 -3.93262L-12.8131 -3.93262C-15.0792 -3.93262 -15.0792 -3.93262 -15.0792 -1.66649V16.4009C-15.0792 17.4321 -14.4918 18.4703 -13.4606 18.4703V18.4703C-12.8979 18.4703 -12.3431 18.337 -11.8419 18.0812L-nan -nanL-nan -nanL-11.8419 18.0812C-9.36952 17.7731 -6.86845 17.7731 -4.39606 18.0812H6.61085H20.7557C23.4083 18.0812 26.0615 18.2511 28.672 18.722C35.8328 20.0135 42.8614 21.9659 49.6673 24.5559C53.0865 25.6891 56.1307 27.736 58.4702 30.475C60.8098 33.214 62.3556 36.5407 62.9403 40.095C64.8708 49.3592 65.8471 58.7967 65.8539 68.2598C66.5015 77.5288 66.5015 86.8317 65.8539 96.1008C65.6311 109.107 62.3012 121.872 56.142 133.33C49.6172 147.005 37.9961 157.58 23.7687 162.79C16.8951 165.128 9.66011 166.224 2.40233 166.027H-10.1804C-11.2772 166.027 -12.3638 165.703 -13.4606 165.703V165.703V165.703C-14.4667 165.703 -15.0792 166.682 -15.0792 167.689L-15.0792 187.07C-14.9726 187.839 -14.6381 188.558 -14.1188 189.135C-13.9346 189.34 -13.7301 189.523 -13.5093 189.683C-12.8131 190.187 -11.917 189.727 -11.5785 188.937V188.937Z" fill="white" fill-opacity="0.2"/>
<path d="M158.126 481.666C159.466 472.602 162.082 463.774 165.895 455.444C171.045 444.3 176.884 433.488 183.377 423.07L189.204 413.358C194.39 403.379 200.23 393.754 206.686 384.546C212.305 376.064 219.596 368.819 228.113 363.252C235.304 358.552 243.24 355.133 251.57 353.134C254.641 352.396 257.805 352.173 260.962 352.173H264.31C269.422 351.987 274.512 352.936 279.214 354.951C283.916 356.966 288.113 359.997 291.504 363.827C295.672 368.938 298.657 374.908 300.244 381.309C303.857 391.85 306.564 402.681 308.338 413.682L308.661 416.919C311.26 432.972 316.167 448.565 323.229 463.213C323.895 464.572 324.522 465.948 325.109 467.339C328.189 474.638 322.249 481.99 314.327 481.99H304.453C303.023 481.99 301.863 480.83 301.863 479.4V479.4V477.134C300.244 465.479 298.302 453.177 297.655 440.876V436.667C297.655 430.352 297.655 423.61 296.438 416.961C295.876 413.888 295.278 410.816 294.754 407.737C293.073 397.841 289.324 388.392 283.734 380.014C280.991 376.324 277.494 373.261 273.475 371.028C269.456 368.795 265.007 367.444 260.425 367.065H255.569C249.523 367.142 243.551 368.411 237.996 370.8C232.441 373.188 227.411 376.65 223.196 380.985C215.401 389.079 208.952 398.369 204.096 408.502L190.499 433.43C187.909 438.61 184.996 443.466 182.082 448.645C176.775 457.825 172.874 467.747 170.507 478.081C170.454 478.312 170.428 478.747 170.428 478.984V478.984C170.428 480.754 168.993 481.99 167.223 481.99H158.126M158.024 482.015C158.091 481.998 158.161 481.99 158.231 481.99H169.003C170.78 481.99 172.707 481.593 173.589 480.05V480.05V480.05C174.486 478.48 174.491 476.564 174.913 474.805C177.046 465.918 180.326 457.342 184.672 449.293C191.794 436.02 199.564 422.747 206.686 409.15C211.383 399.101 217.73 389.909 225.462 381.956C233.353 373.688 244.149 368.812 255.569 368.36H258.159C262.595 368.52 266.937 369.681 270.861 371.755C274.785 373.829 278.19 376.763 280.82 380.338C287.439 389.914 291.353 401.097 292.151 412.711C292.151 422.423 294.093 431.811 294.741 441.523C295.594 454.326 297.106 467.077 299.273 479.724V479.724C299.618 482.545 302.803 483.608 305.645 483.608H310.068C321.335 483.608 329.963 473.252 324.848 463.213V463.213C317.913 448.515 313.012 432.94 310.28 416.919C308.172 404.547 305.252 392.327 301.539 380.338C299.84 373.817 296.748 367.743 292.475 362.532C288.924 358.62 284.567 355.524 279.705 353.456C274.843 351.389 269.591 350.398 264.31 350.554H260.605C257.684 350.554 254.759 350.745 251.907 351.376C243.282 353.284 235.049 356.7 227.593 361.48C218.904 367.05 211.456 374.351 205.714 382.927C199.105 391.872 193.154 401.285 187.909 411.092C179.317 424.984 171.534 439.36 164.6 454.149C160.716 462.697 158.146 471.781 156.976 481.092C156.902 481.683 157.446 482.16 158.024 482.015V482.015Z" fill="white" fill-opacity="0.2"/>
<path d="M36.7338 481.665L33.8202 479.399C28.6592 474.122 21.7559 470.901 14.3962 470.335H-9.97534C-10.3439 470.335 -10.7107 470.4 -11.0721 470.472V470.472C-12.6634 470.789 -13.7685 469.228 -13.7685 467.605V428.932C-13.7685 427.125 -12.3034 425.66 -10.4961 425.66V425.66C-10.3041 425.66 -10.1124 425.643 -9.92332 425.609L4.36048 423.07C7.15699 422.749 9.98103 422.749 12.7775 423.07C22.4227 423.134 31.8107 426.187 39.6473 431.811C53.6955 440.822 64.9164 453.614 72.0206 468.716V468.716C74.6753 474.953 69.6841 481.342 62.9062 481.342H36.7338M36.5128 480.458C36.6427 480.977 37.1093 481.342 37.6446 481.342H61.2684C68.8938 481.342 74.524 474.179 71.6969 467.098V467.098C64.6645 451.777 53.4412 438.758 39.3236 429.545C31.368 423.636 21.716 420.457 11.8063 420.48C9.00983 420.159 6.18579 420.159 3.38928 420.48V420.48C-7.81942 422.348 -16.0347 432.046 -16.0347 443.409V465.043C-16.0347 467.252 -14.5857 469.443 -12.4247 468.985V468.985C-11.8058 468.853 -11.1784 468.716 -10.5457 468.716H-5.99896H8.56901H14.3962C21.1309 469.136 27.4651 472.015 32.2054 476.787C32.6408 477.225 33.1005 477.64 33.6002 478.003L36.0672 479.797C36.2887 479.959 36.4464 480.192 36.5128 480.458V480.458Z" fill="white" fill-opacity="0.2"/>
<path d="M456.586 481.665L459.823 472.601C464.153 459.985 467.721 447.121 470.506 434.077C471.908 426.15 473.965 418.354 476.657 410.768C478.775 405.307 481.844 400.265 485.722 395.876L494.463 386.812L499.642 381.632C510.123 370.865 516.532 356.787 517.771 341.813C519.714 321.741 522.951 301.346 525.865 283.541C527.101 275.5 527.857 267.392 528.131 259.261V255.053C529.336 245.722 531.73 236.583 535.253 227.859C536.814 222.869 539.904 218.496 544.087 215.358C548.27 212.221 553.334 210.479 558.562 210.377V210.377C561.145 210.377 563.74 210.574 566.214 211.318C571.402 212.88 576.239 215.463 580.436 218.93C585.633 223.223 589.685 228.738 592.23 234.981C597.408 245.03 600.388 256.065 600.971 267.354C600.971 270.592 600.971 273.505 600.971 276.419C601.082 285.096 601.84 293.753 603.237 302.318C606.507 320.374 616.59 336.484 631.402 347.316L637.553 351.525L648.559 359.942C653.139 363.424 656.902 367.865 659.586 372.954C662.27 378.042 663.81 383.656 664.099 389.402C664.778 395.101 664.778 400.86 664.099 406.559C663.54 410.136 661.96 413.476 659.548 416.175C657.135 418.875 653.994 420.819 650.502 421.775C645.951 423.468 641.109 424.238 636.258 424.041H611.006C599.368 425.625 588.272 429.953 578.633 436.667C568.558 442.953 559.859 451.211 553.058 460.947C552.506 461.75 551.974 462.565 551.463 463.393C546.448 471.521 538.383 478.104 528.832 478.104H516.086C514.955 478.104 513.835 477.382 514.009 476.264V476.264C514.086 475.763 514.157 475.251 514.092 474.749C513.889 473.174 513.929 471.576 514.21 470.011C514.523 466.349 514.523 462.666 514.21 459.004C514.21 456.86 514.21 454.495 511.823 453.193C510.69 452.574 509.35 452.53 508.059 452.53V452.53C506.867 452.62 505.706 452.954 504.648 453.51C503.59 454.067 502.658 454.835 501.909 455.767C496.699 461.161 492.626 467.546 489.93 474.543L-nan -nanL-nan -nanL489.93 474.543C489.853 475.361 489.612 476.154 489.223 476.877V476.877C488.47 478.275 486.798 478.752 485.21 478.752H460.794M458.48 479.009C458.722 478.842 459.01 478.752 459.304 478.752H482.668C486.119 478.752 489.91 477.777 491.11 474.54V474.54C491.495 473.5 491.753 472.403 492.201 471.388C494.959 465.136 498.791 459.41 503.527 454.472C504.13 453.642 504.905 452.952 505.799 452.449C506.693 451.946 507.685 451.642 508.707 451.558H510.326C511.374 451.558 512.051 452.195 512.528 453.124C514.08 456.146 514.021 459.738 514.096 463.134C514.178 466.83 514.108 470.528 513.887 474.22V474.22C513.887 476.723 515.916 478.752 518.419 478.752H532.008C540.371 478.752 547.366 472.823 551.459 465.529C552.342 463.955 553.308 462.425 554.353 460.947C560.933 451.224 569.549 443.05 579.604 436.99C589.213 430.277 600.336 426.05 611.978 424.688H636.905C641.855 424.776 646.783 424.01 651.473 422.422C655.221 421.45 658.6 419.397 661.19 416.519C663.78 413.641 665.467 410.065 666.041 406.236C666.688 400.426 666.688 394.563 666.041 388.754C665.938 382.524 664.462 376.393 661.721 370.798C659.933 367.149 657.634 363.786 654.904 360.806C651.995 357.632 648.212 355.451 644.319 353.611L636.899 350.103C633.888 348.68 630.973 347.032 628.418 344.897C616.069 334.579 607.694 320.207 604.855 304.26C602.428 292.732 600.806 281.05 600 269.297C599.747 257.237 596.758 245.393 591.259 234.657C588.519 228.3 584.298 222.69 578.948 218.297C574.684 214.797 569.803 212.15 564.57 210.486C561.904 209.638 559.093 209.406 556.296 209.406V209.406C550.761 209.449 545.386 211.264 540.958 214.585C536.53 217.906 533.283 222.558 531.692 227.859C529.321 236.527 527.91 245.429 527.483 254.405C527.483 264.117 527.483 274.153 524.894 283.865C521.656 302.965 518.743 322.389 516.8 342.137C515.643 356.783 509.335 370.547 498.995 380.985L485.074 395.229C481.146 399.702 478.073 404.86 476.01 410.444C473.258 418.147 471.093 426.047 469.535 434.077C465.908 448.715 461.482 463.142 456.279 477.295C455.788 478.63 457.311 479.819 458.48 479.009V479.009Z" fill="white" fill-opacity="0.2"/>
<path d="M97.9351 0.923373L91.8687 -0.992332C91.8133 -1.00981 91.754 -1.01188 91.6973 -0.999598V-0.999598C91.3195 -0.917815 91.3341 -1.01902 91.7206 -1.01902H101.969C103.578 -1.01902 103.865 0.705333 102.274 0.949776C100.843 1.16976 99.3914 1.2699 97.9351 1.2471L-nan -nanL97.9351 1.2471M97.9351 0.760069C97.9351 1.02858 98.1536 1.24622 98.4221 1.2402C99.6574 1.21246 100.885 1.10716 102.099 0.926446C106.135 0.325466 105.144 -3.93262 101.063 -3.93262L89.8712 -3.93262C88.2148 -3.93262 87.2216 -2.18716 88.5373 -1.18097V-1.18097C89.3499 -0.559622 90.2757 -0.105915 91.2608 0.155982C91.606 0.247745 91.9639 0.275907 92.3211 0.275907H97.4509C97.7183 0.275907 97.9351 0.492674 97.9351 0.760069V0.760069Z" fill="white" fill-opacity="0.2"/>
<path d="M458.887 118.115H457.268C442.346 116.441 428.372 109.965 417.449 99.6618C404.08 86.8366 395.221 70.0278 392.198 51.7494L389.932 43.3324V43.3324C383.507 18.7026 402.528 -3.93262 427.982 -3.93262H482.689C487.443 -3.93262 490.663 0.855016 488.023 4.80817V4.80817L486.081 7.39803C479.619 18.2645 475.64 30.4247 474.426 43.0086C472.955 51.342 472.305 59.7995 472.484 68.2598V81.2091C472.484 82.9191 472.484 84.7194 472.484 86.5623C472.484 89.8929 472.949 93.219 472.902 96.5493C472.871 98.694 472.571 100.833 472.003 102.915C470.994 106.614 469.167 110.038 466.657 112.935C465.435 114.182 463.973 115.169 462.359 115.836C460.746 116.504 459.014 116.839 457.268 116.82M456.904 117.366C457.118 117.046 457.523 116.917 457.889 117.034C459.891 117.676 462.01 117.878 464.102 117.623V117.623C468.669 117.066 472.245 113.456 474.012 109.207C474.611 107.765 475.084 106.269 475.422 104.735C475.821 102.929 476.028 101.092 476.044 99.2531C476.081 95.1899 475.426 91.1364 475.368 87.0735C475.31 83.0189 475.136 78.9643 474.617 74.9097C474.186 71.5433 473.71 68.1702 473.777 64.777C473.907 58.1303 474.557 51.5014 475.721 44.951C476.902 32.6605 480.636 20.7547 486.681 9.99448C486.926 9.55805 487.21 9.14333 487.514 8.74577V8.74577C491.796 3.14955 487.014 -3.93262 479.968 -3.93262L430.666 -3.93262C403.005 -3.93262 381.954 21.1217 389.48 47.7391C389.736 48.6449 389.995 49.55 390.256 50.4545C393.433 68.9377 402.387 85.9384 415.831 99.0144C426.998 109.279 441.076 115.816 456.114 117.728C456.425 117.768 456.73 117.627 456.904 117.366V117.366Z" fill="white" fill-opacity="0.2"/>
<path d="M10.1719 149.194C7.33514 149.202 4.50316 149.023 1.69417 148.66C-2.38458 148.133 -6.47186 147.575 -10.5845 147.575H-13.4606V147.575C-14.3545 147.575 -15.0792 146.85 -15.0792 145.956V126.924C-15.0792 125.098 -13.5995 123.619 -11.7742 123.619V123.619C-11.3906 123.619 -11.0102 123.686 -10.6486 123.814C-5.26484 125.721 0.302053 127.066 5.96339 127.827H10.8194V127.827C13.1897 127.827 15.5853 127.729 17.8393 126.996C21.8864 125.679 25.5057 123.24 28.2564 119.93C31.7705 115.701 33.6272 110.339 33.4807 104.842C34.0818 96.1694 31.4301 87.5837 26.0432 80.7602C20.6562 73.9367 12.9203 69.3649 4.34473 67.9368C0.899079 67.6148 -2.56908 67.6148 -6.01472 67.9368H-11.1944C-11.1944 67.9368 -11.1944 67.9368 -11.1944 67.9368V67.9368C-11.1944 67.9368 -13.7843 66.7772 -13.7843 65.3469V54.6132C-13.7843 47.4228 -8.06769 41.4581 -0.892151 41.9202C5.65351 42.3417 12.165 43.2459 18.589 44.628C26.1965 46.0617 33.2086 49.7174 38.74 55.1335C44.2713 60.5496 48.0738 67.4832 49.6673 75.0589C53.196 88.317 53.196 102.267 49.6673 115.525C48.171 123.559 44.2775 130.952 38.499 136.73C32.7205 142.509 25.3279 146.402 17.294 147.899C14.9319 148.235 12.534 148.235 10.1719 147.899M10.1719 146.749C10.1719 147.406 10.6601 147.965 11.3152 148.023C13.4132 148.21 15.5265 148.168 17.6178 147.899C25.5628 146.203 32.8471 142.244 38.5916 136.499C44.3362 130.755 48.2952 123.47 49.991 115.525C53.339 102.121 53.2276 88.0851 49.6673 74.7351C48.3781 67.0823 44.9155 59.9615 39.6923 54.2217C34.469 48.4818 27.7054 44.365 20.2076 42.3619C9.58174 40.0348 -1.29501 39.0559 -12.1656 39.4483V39.4483C-13.7748 39.4483 -15.0792 40.7527 -15.0792 42.3619V65.9944V65.9944C-15.0792 69.3147 -8.68164 67.613 -5.36132 67.613H1.55833C3.1972 67.613 4.84032 67.7222 6.43199 68.1127C13.897 69.9439 20.548 74.2601 25.2666 80.3889C30.4876 87.1702 32.9585 95.6714 32.1857 104.195C32.2687 109.334 30.5243 114.335 27.2634 118.307C24.7603 121.356 21.4886 123.647 17.8162 124.963C15.5859 125.763 13.1886 125.885 10.8194 125.885V125.885L5.96339 125.561C0.511941 124.85 -4.84452 123.545 -10.0107 121.671C-10.5806 121.464 -11.1813 121.353 -11.7876 121.353H-12.1198C-12.7861 121.353 -13.4418 121.092 -14.108 121.092V121.092V121.092C-14.7374 121.092 -15.0792 121.74 -15.0792 122.37L-15.0792 134.949C-15.0792 140.671 -10.4412 145.309 -4.71979 145.309V145.309C-0.245148 145.74 4.25754 145.781 8.73759 145.434C9.50707 145.374 10.1719 145.977 10.1719 146.749V146.749Z" fill="white" fill-opacity="0.2"/>
<path d="M11.1431 127.504C4.05287 127.246 -2.94672 125.824 -9.57578 123.296L-nan -nanL-nan -nanL-9.57578 123.296L-12.5684 122.768C-14.0206 122.512 -15.0792 121.25 -15.0792 119.775V75.7072C-15.0792 71.595 -11.7456 68.2614 -7.63339 68.2614V68.2614C-2.69015 67.6209 2.31507 67.6209 7.25832 68.2614C11.4508 69.3278 15.387 71.2237 18.8344 73.8371C22.2818 76.4504 25.1705 79.7282 27.3297 83.4768C29.8789 87.6536 31.5143 92.323 32.1281 97.1776C32.7419 102.032 32.3202 106.962 30.8908 111.642C29.7825 115.727 27.3909 119.348 24.0685 121.971C20.7462 124.594 16.669 126.08 12.438 126.21L-nan -nanL12.438 126.21M11.8208 128.061C12.1922 126.947 13.2179 126.198 14.3823 126.046C18.1879 125.551 21.803 124.038 24.8377 121.65C28.3855 118.858 30.9578 115.015 32.1857 110.67C34.2023 101.757 32.7471 92.4102 28.1163 84.5318C24.2185 77.9006 18.3175 72.729 11.3181 69.7229C8.67752 68.5889 5.82963 68.0227 2.96009 67.8666C-0.572701 67.6744 -4.11871 67.806 -7.63339 68.2614V68.2614C-11.7456 68.2614 -15.0792 71.595 -15.0792 75.7072V118.516C-15.0792 121.46 -13.4628 124.166 -10.8707 125.562V125.562C-4.47591 127.934 2.21242 129.411 9.00454 129.954C10.2671 130.055 11.4203 129.263 11.8208 128.061V128.061Z" fill="white" fill-opacity="0.2"/>
<path d="M189.534 343.758C185.002 343.758 182.736 340.521 182.412 334.37C182.308 329.734 182.644 325.105 183.411 320.543C184.225 315.705 184.832 310.777 186.102 306.038C187.22 301.865 188.958 297.658 190.181 293.579C192.124 287.105 193.742 281.925 195.037 276.098C197.646 262.953 197.646 249.424 195.037 236.279C194.755 232.291 194.755 228.288 195.037 224.301C195.037 218.838 197.336 215.418 201.025 214.721C201.983 214.54 202.965 214.475 203.938 214.405V214.405C206.185 214.244 208.316 215.223 210.137 216.549C212.761 218.461 215.285 220.508 217.699 222.682C226.116 228.509 234.857 233.689 243.597 238.545L248.13 241.135C255.403 244.708 262.068 249.405 267.877 255.055C270.453 257.194 272.539 259.862 273.991 262.879C275.444 265.895 276.229 269.189 276.294 272.537C276.401 276.606 275.682 280.656 274.18 284.439C272.677 288.223 270.423 291.663 267.553 294.551C260.563 301.314 252.597 306.988 243.921 311.385C233.238 318.831 221.583 326.276 211.548 333.722C207.224 336.633 202.593 339.052 197.741 340.935C195.542 341.789 193.188 342.139 190.829 342.139V342.139M190.343 344.729C190.625 343.228 191.936 342.139 193.464 342.139H194.144C194.522 342.139 194.898 342.086 195.26 341.978C200.934 340.281 206.399 337.946 211.548 335.017L245.54 312.356C253.149 307.671 260.115 302.011 266.259 295.522C269.415 292.513 271.931 288.897 273.656 284.892C275.38 280.886 276.278 276.574 276.294 272.213C276.133 265.744 273.463 259.591 268.848 255.055C263.046 248.908 256.263 243.766 248.777 239.84C238.418 234.013 228.058 228.509 218.346 221.711C216.003 219.963 213.544 218.376 210.988 216.961C209.232 215.989 207.315 215.236 205.308 215.274V215.274C203.633 215.305 201.925 215.428 200.317 215.9C196.602 216.989 194.334 220.667 194.066 226.567C193.746 230.553 193.746 234.559 194.066 238.545C196.657 251.583 196.657 265.003 194.066 278.04C191.153 290.666 186.62 302.644 184.03 315.27C182.212 322.243 181.341 329.43 181.441 336.636C181.441 342.474 183.616 345.92 187.254 346.972C188.721 347.397 190.062 346.231 190.343 344.729V344.729Z" fill="white" fill-opacity="0.2"/>
<path d="M429.762 67.6149V67.6149C428.289 67.6149 426.817 67.186 425.77 66.1506C424.652 65.0458 423.712 63.7675 422.99 62.3608C421.921 60.2797 421.358 57.9762 421.345 55.6368C421.239 53.832 421.533 52.026 422.204 50.3474C422.588 49.3865 423.091 48.4808 423.699 47.6506C424.601 46.4187 425.976 45.4586 427.495 45.6108V45.6108C428.378 45.6993 429.244 45.9626 430.089 46.2328C431.119 46.5618 432.082 47.0801 432.928 47.765C434.122 48.7312 435.04 49.9946 435.59 51.4283C436.931 54.1624 437.402 57.2421 436.939 60.2521C436.645 62.1645 435.982 63.9903 435 65.633C433.881 67.5033 431.798 69.0408 429.762 68.2624V68.2624M431.381 67.6149C431.112 67.7225 431.182 67.9621 431.451 67.8551C431.671 67.7677 431.887 67.6675 432.096 67.5548V67.5548C433.534 66.7803 434.63 65.4874 435.663 64.2213C437.159 62.3864 438.232 60.2313 438.791 57.9094C439.543 54.788 439.329 51.5122 438.179 48.5147C437.531 46.9618 436.514 45.5902 435.217 44.5185C434.582 43.9935 433.888 43.5482 433.152 43.1902C431.621 42.4451 429.835 42.2667 428.217 42.7988V42.7988C426.556 43.3452 425.238 44.6123 424.319 46.1003C423.613 47.2456 423.049 48.4776 422.646 49.7686C421.979 51.8997 421.76 54.1456 422.003 56.3651C422.247 58.5847 422.947 60.73 424.059 62.666C424.681 63.7481 425.424 64.7518 426.272 65.6585C427.6 67.079 429.498 68.1012 431.381 67.6149V67.6149V67.6149Z" fill="white" fill-opacity="0.2"/>
<path d="M206.676 5.45563C204.56 5.37251 202.529 4.60003 200.893 3.25584C199.309 1.95503 198.179 0.187812 197.661 -1.79149C197.627 -1.92316 197.611 -2.05898 197.611 -2.19507V-2.19507C197.611 -3.15469 198.389 -3.93262 199.349 -3.93262H208.86C214.566 -3.93262 217.352 2.23908 212.135 4.55082V4.55082C211.739 4.72646 211.319 4.85939 210.891 4.92339C209.599 5.11619 208.281 5.07778 207 4.80817M206.214 5.98669C206.666 5.30842 207.542 5.07049 208.311 5.34291C209.033 5.59911 209.774 5.8004 210.528 5.94496C211.185 6.07101 211.863 5.99396 212.484 5.74653C212.751 5.64042 213.015 5.52978 213.277 5.41471C219.055 2.87657 215.913 -3.93262 209.602 -3.93262L197.37 -3.93262C196.252 -3.93262 195.345 -3.02599 195.345 -1.90761V-1.90761C195.345 -1.74743 195.364 -1.58757 195.405 -1.43273C196 0.816621 197.294 2.82157 199.104 4.29151C200.737 5.61859 202.711 6.44552 204.789 6.68402C205.357 6.74912 205.897 6.46178 206.214 5.98669V5.98669Z" fill="white" fill-opacity="0.2"/>
<path d="M94.3845 303.938V303.938C91.8339 304.459 89.2572 303.516 86.8953 302.421C81.4288 299.888 76.4099 296.465 72.0469 292.284C63.6299 285.161 54.5654 278.363 45.5008 271.888L30.2854 259.91C28.5283 258.714 26.9097 257.333 25.4558 255.795C23.3097 253.524 21.2831 251.099 19.6371 248.443C18.8625 247.193 18.213 245.866 17.7004 244.479C16.6432 241.619 16.1916 238.571 16.3742 235.527C16.5568 232.484 17.3696 229.511 18.7612 226.798C19.3495 225.652 20.0359 224.562 20.8109 223.54C22.9256 220.753 25.5352 218.363 28.0084 215.889C30.7792 213.116 33.8183 210.62 37.0838 208.437L74.1974 181.791C74.6936 181.435 75.2891 181.243 75.8999 181.243V181.243C76.5499 181.243 77.1794 181.024 77.701 180.636C80.4475 178.593 83.4171 176.875 86.5504 175.513C88.91 174.487 91.4879 174.121 94.0607 174.121V174.121C98.2693 174.121 100.859 176.711 102.802 181.567C105.608 189.563 106.818 198.032 106.363 206.494C106.363 214.911 106.363 223.652 106.363 231.746V237.896C105.581 246.944 105.581 256.042 106.363 265.09C106.363 267.032 106.363 268.975 106.363 270.917C107.337 277.898 107.337 284.979 106.363 291.96C105.951 294.373 105.071 296.683 103.773 298.758C102.819 300.411 101.452 301.787 99.8063 302.751C98.1605 303.716 96.2921 304.237 94.3845 304.262M94.3845 304.741C94.3845 304.474 94.5971 304.257 94.8632 304.24C96.8474 304.114 98.7783 303.533 100.505 302.539C102.37 301.465 103.938 299.943 105.068 298.111C106.264 295.758 107.136 293.253 107.658 290.665C108.95 281.755 108.95 272.705 107.658 263.795C107.01 254.742 107.01 245.654 107.658 236.602C107.658 226.242 107.658 215.883 107.658 204.228C108.114 195.66 106.905 187.085 104.096 178.977C103.595 176.659 102.337 174.574 100.52 173.05C98.7029 171.526 96.4305 170.65 94.0607 170.56V170.56C91.2756 170.56 88.4886 170.987 85.9463 172.124C82.4058 173.709 79.0468 175.68 75.9317 178.006C62.6587 190.308 49.7094 199.372 36.4363 209.084C31.5209 212.245 27.056 216.056 23.1633 220.415C18.8399 224.585 16.2407 230.227 15.881 236.223C15.5212 242.219 17.4271 248.131 21.2209 252.788C23.6136 255.885 26.4498 258.612 29.6379 260.881C43.2347 271.565 57.8027 281.277 71.0757 293.255C76.3839 298.391 82.6809 302.39 89.5816 305.011C89.9739 305.16 90.3907 305.233 90.8104 305.233H93.8925C94.1642 305.233 94.3845 305.013 94.3845 304.741V304.741Z" fill="white" fill-opacity="0.2"/>
<path d="M445.607 276.744C440.377 276.309 435.3 274.764 430.715 272.212C420.813 266.738 411.67 259.99 403.522 252.14C395.349 243.741 389.059 233.699 385.069 222.681C378.828 205.134 369.751 188.729 358.199 174.121C356.515 171.877 355.02 169.5 353.73 167.014C352.518 164.677 351.075 162.339 350.791 159.722C350.756 159.398 350.738 159.071 350.738 158.743C350.738 157.088 351.191 155.465 352.048 154.049C352.907 152.816 354.081 151.835 355.447 151.209C356.814 150.583 358.323 150.334 359.818 150.488L-nan -nanL-nan -nanL359.818 150.488C366.605 151.116 373.148 153.334 378.918 156.963C388.996 163.466 398.051 171.43 405.788 180.595C416.567 194.113 428.02 207.078 440.103 219.443L445.93 225.27C449.73 228.585 453.299 232.154 456.614 235.954C460.1 239.665 462.749 244.081 464.383 248.903C465.271 251.741 465.557 254.732 465.223 257.687C464.888 260.641 463.941 263.493 462.441 266.061C461.063 268.514 459.207 270.667 456.983 272.391C454.759 274.114 452.211 275.375 449.492 276.096L-nan -nanL-nan -nanL449.492 276.096H445.607M445.297 277.954C445.476 276.882 446.403 276.096 447.49 276.096H449.484C449.918 276.096 450.352 276.037 450.765 275.904C456.407 274.082 461.152 270.173 464.019 264.965C466.992 259.566 467.705 253.208 466.002 247.284C464.338 242.211 461.574 237.569 457.909 233.688C452.729 227.86 446.902 222.681 441.398 217.177C429.096 204.875 418.089 191.926 407.083 178.653C399.596 168.978 390.508 160.657 380.213 154.049C374.439 150.134 367.744 147.791 360.789 147.251L-nan -nanL-nan -nanL360.789 147.251C359.087 147.09 357.373 147.397 355.833 148.139C354.292 148.88 352.984 150.029 352.048 151.459C351.004 153.045 350.447 154.902 350.447 156.801C350.447 156.833 350.447 156.866 350.448 156.898C350.484 160.594 352.638 163.928 354.437 167.158C355.54 169.14 356.798 171.035 358.199 172.826C369.349 187.961 377.985 204.795 383.774 222.681C387.334 234.686 393.527 245.746 401.903 255.054C410.052 263.045 419.322 269.807 429.42 275.125C433.591 277.511 438.173 279.077 442.918 279.749C444.067 279.911 445.106 279.099 445.297 277.954V277.954Z" fill="white" fill-opacity="0.2"/>
</svg>

